# xmcd
#
# Track frame offsets: 
#        182
#        14652
#        26305
#        37542
#        50420
#        63027
#        76655
#        92372
#        105382
#        117367
#        131640
#        145245
#        159517
#        171720
#        184155
#        195272
#        209745
#        222187
#        235645
#        248542
#
# Disc length: 3488 seconds
#
# Revision: 4
# Processed by: cddbd v1.5.1PL2 Copyright (c) Steve Scherf et al.
# Submitted via: ExactAudioCopy v0.95b4
#
DISCID=fd0d9e14
DTITLE=Various Artist - Songs Of The Wild West
DYEAR=1996
DGENRE=Country
TTITLE0=Carson Robison and his Pioneers - Home On The Range
TTITLE1=Gene Autry - Sierra Sue
TTITLE2=Carson Robison and his Pioneers - I'm Leavin' On That Blue Riv
TTITLE2=er Train
TTITLE3=Gene Autry - Be Honest With Me
TTITLE4=Carson Robison and his Pioneers - Open Up Dem Pearly Gates For
TTITLE4=Me
TTITLE5=Gene Autry - Little Old Band Of Gold
TTITLE6=Carson Robison and his Pioneers - Pals Of The Little Red Schoo
TTITLE6=l
TTITLE7=Carson Robison and his Pioneers - I Left Her Standing There
TTITLE8=Carson Robison and his Pioneers - I Was Born In Old Wyoming
TTITLE9=Carson Robison and his Pioneers - Hallelujah I'm A Bum
TTITLE10=Jack Savage and his Cowboys - Tumbling Tumbleweeds
TTITLE11=Carson Robison and his Pioneers - There's A Bridle Hanging On
TTITLE11=The Wall
TTITLE12=Gene Autry - Blueberry Hill
TTITLE13=Carson Robison and his Pioneers - So I Joined The Navy
TTITLE14=Jack Savage and his Cowboys - Going Back To Texas
TTITLE15=Carson Robison and his Pioneers - Ramblin' Cowboy
TTITLE16=Gene Autry - What's Gonna Happen To Me
TTITLE17=Carson Robison and his Pioneers - Peg Leg Jack
TTITLE18=Jack Savage and his Cowboys - That Old Wooden Rocker
TTITLE19=Carson Robison and his Pioneers - The Candlelight In The Wind
TTITLE19=ow
EXTD=
EXTT0=
EXTT1=
EXTT2=
EXTT3=
EXTT4=
EXTT5=
EXTT6=
EXTT7=
EXTT8=
EXTT9=
EXTT10=
EXTT11=
EXTT12=
EXTT13=
EXTT14=
EXTT15=
EXTT16=
EXTT17=
EXTT18=
EXTT19=
PLAYORDER=
